# AST/ASF file generated using VICON BodyLanguage
# -----------------------------------------------
:version 1.10
:name VICON
:units
  mass 1.0
  length 0.45
  angle deg
:documentation
   .ast/.asf automatically generated from VICON data using
   VICON BodyBuilder and BodyLanguage model FoxedUp or BRILLIANT.MOD
:root
   order TX TY TZ RX RY RZ
   axis XYZ
   position 0 0 0  
   orientation 0 0 0 
:bonedata
  begin
     id 1 
     name lhipjoint
     direction 0.576517 -0.752066 0.319413 
     length 2.45433 
     axis 0 0 0  XYZ
  end
  begin
     id 2 
     name lfemur
     direction 0.34202 -0.939693 0  
     length 7.54459  
     axis 0 0 20  XYZ
    dof rx ry rz
    limits (-160.0 20.0)
           (-70.0 70.0)
           (-60.0 70.0)
  end
  begin
     id 3 
     name ltibia
     direction 0.34202 -0.939693 0   
     length 7.73986   
     axis 0 0 20   XYZ
    dof rx
    limits (-10.0 170.0)
  end
  begin
     id 4 
     name lfoot
     direction 0.090693 -0.249177 0.964202   
     length 2.28437   
     axis -90 7.62852e-016 20   XYZ
    dof rx rz
    limits (-45.0 90.0)
           (-70.0 20.0)
  end
  begin
     id 5 
     name ltoes
     direction 1.5356e-011 -4.21928e-011 1   
     length 1.14243   
     axis -90 7.62852e-016 20   XYZ
    dof rx
    limits (-90.0 20.0)
  end
  begin
     id 6 
     name rhipjoint
     direction -0.573937 -0.753736 0.320122   
     length 2.44889  
     axis 0 0 0  XYZ 
  end
  begin
     id 7 
     name rfemur
     direction -0.34202 -0.939693 0   
     length 7.50166   
     axis 0 0 -20   XYZ
    dof rx ry rz
    limits (-160.0 20.0)
           (-70.0 70.0)
           (-70.0 60.0)
  end
  begin
     id 8 
     name rtibia
     direction -0.34202 -0.939693 0   
     length 7.54266   
     axis 0 0 -20   XYZ
    dof rx
    limits (-10.0 170.0)
 end
 begin
     id 9 
     name rfoot
     direction -0.114017 -0.31326 0.942798   
     length 2.34212  
     axis -90 -7.62852e-016 -20   XYZ
    dof rx rz
    limits (-45.0 90.0)
           (-20.0 70.0)
  end
  begin
     id 10 
     name rtoes
     direction -1.53557e-011 -4.21867e-011 1   
     length 1.16246   
     axis -90 -7.62852e-016 -20   XYZ
    dof rx
    limits (-90.0 20.0)
  end
  begin
     id 11 
     name lowerback
     direction -0.0228371 0.999155 -0.034167   
     length 2.0537   
     axis 0 0 0   XYZ
    dof rx ry rz
    limits (-20.0 45.0)
           (-30.0 30.0)
           (-30.0 30.0)
  end
  begin
     id 12 
     name upperback
     direction 0.0198981 0.999794 0.00389455   
     length 2.05302   
     axis 0 0 0   XYZ
    dof rx ry rz
    limits (-20.0 45.0)
           (-30.0 30.0)
           (-30.0 30.0)
  end
  begin
     id 13 
     name thorax
     direction 0.0304566 0.99935 0.0192987   
     length 2.05315   
     axis 0 0 0   XYZ
    dof rx ry rz
    limits (-20.0 45.0)
           (-30.0 30.0)
           (-30.0 30.0)
  end
  begin
     id 14 
     name lowerneck
     direction -0.0196762 0.99417 0.106017   
     length 1.82056   
     axis 0 0 0   XYZ
    dof rx ry rz
    limits (-20.0 45.0)
           (-30.0 30.0)
           (-30.0 30.0)
  end
  begin
     id 15 
     name upperneck
     direction 0.00517787 0.9802 -0.197944   
     length 1.83835   
     axis 0 0 0   XYZ
    dof rx ry rz
    limits (-20.0 45.0)
           (-30.0 30.0)
           (-30.0 30.0)
  end
  begin
     id 16
     name head
     direction 0.00211419 0.996945 -0.078081  
     length 1.85629  
     axis 0 0 0   XYZ
    dof rx ry rz
    limits (-20.0 45.0)
           (-30.0 30.0)
           (-30.0 30.0)
  end
  begin
     id 17 
     name lclavicle
     direction 0.930001 0.365811 -0.0357824  
     length 3.81961  
     axis 0 0 0   XYZ
    dof ry rz
    limits (-20.0 10.0)
           (0.0 20.0)
  end
  begin
     id 18 
     name lhumerus
     direction 1 -4.48968e-011 -3.06644e-027   
     length 5.14507   
     axis 180 -30 -90   XYZ
    dof rx ry rz
    limits (-60.0 90.0)
           (-90.0 90.0)
           (-90.0 90.0)
  end
  begin
     id 19
     name lradius
     direction 1 -4.48965e-011 9.06925e-028   
     length 3.50646   
     axis 180 -30 -90   XYZ
    dof rx
    limits (-10.0 170.0)
  end
  begin
     id 20
     name lwrist
     direction 1 -4.48957e-011 1.03922e-027   
     length 1.75323   
     axis -2.56395e-016 90 90   XYZ
    dof ry
    limits (-180.0 0.0)
 end
  begin
     id 21 
     name lhand
     direction 1 -4.48967e-011 2.08017e-027   
     length 0.629969   
     axis -1.32723e-015 90 90   XYZ
    dof rx rz
    limits (-90.0 90.0)
           (-45.0 45.0)
  end
  begin
     id 22 
     name lfingers
     direction 1 -4.49089e-011 4.20095e-027   
     length 0.507897   
     axis -2.6545e-015 90 90   XYZ
    dof rx
    limits (0.0 90.0)
  end
  begin
     id 23
     name lthumb
     direction 0.707107 -6.35001e-011 0.707107   
     length 0.729241   
     axis -90 45 5.05613e-014   XYZ
    dof rx rz
    limits (-45.0 45.0)
           (-45.0 45.0)
  end
  begin
     id 24 
     name rclavicle
     direction -0.881882 0.464123 -0.0829113   
     length 3.47515  
     axis 0 0 0   XYZ 
    dof ry rz
    limits (-10.0 20.0)
           (-20.0 0.0)
  end
  begin
     id 25 
     name rhumerus
     direction -1 -4.48961e-011 -1.55672e-027  
     length 5.232   
     axis 180 30 90   XYZ
    dof rx ry rz
    limits (-90.0 60.0)
           (-90.0 90.0)
           (-90.0 90.0)
  end
  begin
     id 26 
     name rradius
     direction -1 -4.48963e-011 6.18178e-029   
     length 3.65641   
     axis 180 30 90   XYZ
    dof rx
    limits (-10.0 170.0)
  end
  begin
     id 27 
     name rwrist
     direction -1 -4.48982e-011 1.04136e-027   
     length 1.8282   
     axis -2.56395e-016 -90 -90   XYZ
    dof ry
    limits (-180.0 0.0)
  end
  begin
     id 28
     name rhand
     direction -1 -4.48929e-011 2.07378e-027   
     length 0.656807   
     axis -1.32723e-015 -90 -90   XYZ
    dof rx rz
    limits (-90.0 90.0)
           (-45.0 45.0)
  end
  begin
     id 29
     name rfingers
     direction -1 -4.489e-011 4.13816e-027   
     length 0.529535   
     axis -2.6545e-015 -90 -90   XYZ
    dof rx
    limits (0.0 90.0)
  end
  begin
     id 30
     name rthumb
     direction -0.707107 -6.34843e-011 0.707107   
     length 0.760309   
     axis -90 -45 -5.05613e-014   XYZ
    dof rx rz
    limits (-45.0 45.0)
           (-45.0 45.0)
  end
:hierarchy
  begin
    root lhipjoint rhipjoint lowerback
    lhipjoint lfemur
    lfemur ltibia
    ltibia lfoot
    lfoot ltoes
    rhipjoint rfemur
    rfemur rtibia
    rtibia rfoot
    rfoot rtoes
    lowerback upperback
    upperback thorax
    thorax lowerneck lclavicle rclavicle
    lowerneck upperneck
    upperneck head
    lclavicle lhumerus
    lhumerus lradius
    lradius lwrist
    lwrist lhand lthumb
    lhand lfingers
    rclavicle rhumerus
    rhumerus rradius
    rradius rwrist
    rwrist rhand rthumb
    rhand rfingers
  end

#!OML:ASF H:\ManfredETheater\Project 1\Capture day 1\Session 1\subject.ASF
:FULLY-SPECIFIED
:DEGREES
47
root -8.86739 17.1122 39.3298 -172.255 16.5289 180.341
lowerback 5.01638 1.44304 0.472537
upperback -1.69068 2.2002 3.18726
thorax -4.67601 1.17065 2.83721
lowerneck -14.63 3.10346 2.21738
upperneck 13.8961 4.64237 -4.63671
head 6.81154 2.00314 -1.38071
rclavicle -1.50082e-014 -2.46493e-014
rhumerus -33.9343 -7.41986 -80.2046
rradius 34.6427
rwrist 5.43969
rhand -16.1763 -10.4963
rfingers 7.12502
rthumb 10.0301 -40.2373
lclavicle -1.50082e-014 -2.46493e-014
lhumerus -32.3055 3.78546 89.3487
lradius 31.9686
lwrist -8.95528
lhand -6.60346 1.36806
lfingers 7.12502
lthumb 19.2522 30.4351
rfemur -12.1941 -3.24454 26.5749
rtibia 29.3892
rfoot -20.0634 -21.6595
rtoes -12.0587
lfemur -31.6737 -1.99919 -11.0666
ltibia 43.376
lfoot -15.2013 -2.89706
ltoes 7.44501
48
root -8.86239 17.1126 39.3152 -172.241 16.6269 180.278
lowerback 4.98332 1.4474 0.436931
upperback -1.67083 2.19821 3.15482
thorax -4.63634 1.16889 2.82464
lowerneck -14.6282 3.12914 2.23127
upperneck 13.8628 4.67249 -4.64255
head 6.80207 2.01785 -1.38187
rclavicle 1.3418e-014 3.18055e-015
rhumerus -33.9404 -7.50735 -80.2455
rradius 34.4561
rwrist 5.62175
rhand -16.1415 -10.3478
rfingers 7.12502
rthumb 10.0636 -40.0872
lclavicle 1.3418e-014 3.18055e-015
lhumerus -32.3434 3.74724 89.3529
lradius 31.9427
lwrist -8.98681
lhand -6.54623 1.36548
lfingers 7.12502
lthumb 19.3072 30.427
rfemur -12.1997 -3.15427 26.5092
rtibia 29.4255
rfoot -20.0451 -21.7386
rtoes -12.2158
lfemur -31.6518 -1.95308 -11.13
ltibia 43.4173
lfoot -15.2221 -2.88236
ltoes 7.3196
49
root -8.85743 17.113 39.3005 -172.221 16.7119 180.219
lowerback 4.95204 1.44792 0.407496
upperback -1.65494 2.19206 3.12408
thorax -4.60148 1.16504 2.81068
lowerneck -14.6266 3.15469 2.24787
upperneck 13.8332 4.70332 -4.65449
head 6.79406 2.03257 -1.38534
rclavicle 1.68967e-015 -3.26007e-014
rhumerus -33.9471 -7.60463 -80.2787
rradius 34.278
rwrist 5.79674
rhand -16.1097 -10.2192
rfingers 7.12502
rthumb 10.0943 -39.9571
lclavicle 1.68967e-015 -3.26007e-014
lhumerus -32.3798 3.70208 89.3572
lradius 31.9144
lwrist -9.0293
lhand -6.48843 1.36022
lfingers 7.12502
lthumb 19.3628 30.4162
rfemur -12.2074 -3.06908 26.4492
rtibia 29.4538
rfoot -20.0176 -21.8253
rtoes -12.4083
lfemur -31.6386 -1.9029 -11.1896
ltibia 43.4579
lfoot -15.2487 -2.88306
ltoes 7.21653
50
root -8.85268 17.1132 39.2857 -172.194 16.786 180.168
lowerback 4.92764 1.444 0.386339
upperback -1.6465 2.18175 3.0995
thorax -4.57805 1.15929 2.79861
lowerneck -14.6156 3.18052 2.2615
upperneck 13.8061 4.73701 -4.67274
head 6.78549 2.04828 -1.39016
rclavicle 4.88016e-014 -1.51076e-014
rhumerus -33.9621 -7.69178 -80.3047
rradius 34.1132
rwrist 5.94141
rhand -16.0927 -10.1196
rfingers 7.12502
rthumb 10.1107 -39.8567
lclavicle 4.88016e-014 -1.51076e-014
lhumerus -32.421 3.65857 89.3645
lradius 31.8834
lwrist -9.08697
lhand -6.43511 1.35131
lfingers 7.12502
lthumb 19.414 30.4021
rfemur -12.213 -2.99389 26.3971
rtibia 29.4711
rfoot -19.9791 -21.9114
rtoes -12.6432
lfemur -31.6331 -1.8498 -11.2422
ltibia 43.5001
lfoot -15.2816 -2.89414
ltoes 7.12872
51
root -8.84828 17.1133 39.2707 -172.163 16.8502 180.125
lowerback 4.90695 1.44052 0.3797
upperback -1.63613 2.17322 3.07505
thorax -4.55427 1.15405 2.77828
lowerneck -14.6239 3.2044 2.2797
upperneck 13.7859 4.76807 -4.69699
head 6.78263 2.06203 -1.39765
rclavicle 3.3694e-014 3.97569e-015
rhumerus -33.9711 -7.79138 -80.3244
rradius 33.9595
rwrist 6.06439
rhand -16.0861 -10.0246
rfingers 7.12502
rthumb 10.1171 -39.7614
lclavicle 3.3694e-014 3.97569e-015
lhumerus -32.4394 3.60508 89.3737
lradius 31.84
lwrist -9.15695
lhand -6.38167 1.33363
lfingers 7.12502
lthumb 19.4654 30.3793
rfemur -12.2137 -2.92851 26.3508
rtibia 29.4758
rfoot -19.9386 -21.9875
rtoes -12.8846
lfemur -31.6339 -1.797 -11.2884
ltibia 43.5453
lfoot -15.321 -2.91066
ltoes 7.05741
52
root -8.84442 17.1133 39.2553 -172.129 16.9076 180.093
lowerback 4.89631 1.43799 0.387841
upperback -1.62937 2.1679 3.05473
thorax -4.53974 1.15028 2.75335
lowerneck -14.6401 3.22588 2.29806
upperneck 13.7743 4.79752 -4.7276
head 6.78403 2.07435 -1.40725
rclavicle -2.72335e-014 -2.62396e-014
rhumerus -33.9875 -7.89225 -80.3316
rradius 33.8234
rwrist 6.17236
rhand -16.0829 -9.94234
rfingers 7.12502
rthumb 10.1202 -39.679
lclavicle -2.72335e-014 -2.62396e-014
lhumerus -32.4443 3.55058 89.3876
lradius 31.7833
lwrist -9.24123
lhand -6.34315 1.30447
lfingers 7.12502
lthumb 19.5025 30.3464
rfemur -12.2062 -2.87529 26.3112
rtibia 29.4671
rfoot -19.9034 -22.0433
rtoes -13.115
lfemur -31.6397 -1.74695 -11.326
ltibia 43.5952
lfoot -15.3673 -2.92714
ltoes 7.00877
53
root -8.84123 17.1132 39.2396 -172.093 16.9608 180.071
lowerback 4.89444 1.4369 0.41377
upperback -1.62206 2.16638 3.03775
thorax -4.5293 1.14811 2.72135
lowerneck -14.6656 3.24493 2.31621
upperneck 13.768 4.82514 -4.7648
head 6.7889 2.08506 -1.41897
rclavicle -8.98507e-014 -3.18055e-015
rhumerus -34.0063 -7.99087 -80.3299
rradius 33.7095
rwrist 6.26719
rhand -16.0747 -9.8812
rfingers 7.12502
rthumb 10.1281 -39.6174
lclavicle -8.98507e-014 -3.18055e-015
lhumerus -32.4292 3.49698 89.4049
lradius 31.7136
lwrist -9.33528
lhand -6.30496 1.27207
lfingers 7.12502
lthumb 19.5392 30.3102
rfemur -12.1882 -2.83466 26.2776
rtibia 29.4467
rfoot -19.8782 -22.0759
rtoes -13.3171
lfemur -31.6463 -1.70255 -11.3554
ltibia 43.6509
lfoot -15.4201 -2.93686
ltoes 6.9749
54
root -8.83876 17.1129 39.2235 -172.056 17.0117 180.058
lowerback 4.90849 1.43651 0.451554
upperback -1.62167 2.16799 3.02731
thorax -4.53507 1.14756 2.68876
lowerneck -14.6866 3.26237 2.32931
upperneck 13.7661 4.85345 -4.80783
head 6.79445 2.09555 -1.4317
rclavicle 6.7885e-014 1.51076e-014
rhumerus -34.0412 -8.06841 -80.3188
rradius 33.6279
rwrist 6.34478
rhand -16.0569 -9.8682
rfingers 7.12502
rthumb 10.1453 -39.6036
lclavicle 6.7885e-014 1.51076e-014
lhumerus -32.4098 3.45402 89.4258
lradius 31.6357
lwrist -9.43752
lhand -6.28048 1.23015
lfingers 7.12502
lthumb 19.5627 30.2659
rfemur -12.162 -2.81077 26.248
rtibia 29.4172
rfoot -19.8614 -22.0819
rtoes -13.4978
lfemur -31.655 -1.66344 -11.3785
ltibia 43.7136
lfoot -15.4799 -2.93952
ltoes 6.96238
55
root -8.83702 17.1125 39.2072 -172.017 17.0579 180.052
lowerback 4.93062 1.43275 0.500963
upperback -1.62812 2.16713 3.02377
thorax -4.55233 1.14586 2.65677
lowerneck -14.6876 3.2803 2.33283
upperneck 13.76 4.88553 -4.8534
head 6.79523 2.10774 -1.44354
rclavicle -3.3694e-014 -1.98785e-014
rhumerus -34.0894 -8.11927 -80.299
rradius 33.5738
rwrist 6.4182
rhand -16.0214 -9.8975
rfingers 7.12502
rthumb 10.1795 -39.6312
lclavicle -3.3694e-014 -1.98785e-014
lhumerus -32.3921 3.43156 89.4467
lradius 31.5572
lwrist -9.54217
lhand -6.27231 1.18375
lfingers 7.12502
lthumb 19.5706 30.2187
rfemur -12.1333 -2.80481 26.2222
rtibia 29.3824
rfoot -19.8554 -22.0653
rtoes -13.6499
lfemur -31.6694 -1.63026 -11.3966
ltibia 43.7844
lfoot -15.5458 -2.93447
ltoes 6.96573
56
root -8.83576 17.1117 39.191 -171.971 17.1024 180.056
lowerback 4.96411 1.42659 0.554689
upperback -1.647 2.16524 3.0304
thorax -4.58923 1.14408 2.63263
lowerneck -14.6588 3.29846 2.32668
upperneck 13.7484 4.92169 -4.90337
head 6.78921 2.12187 -1.45519
rclavicle -4.02539e-014 -2.78299e-014
rhumerus -34.1613 -8.13664 -80.2683
rradius 33.5594
rwrist 6.50052
rhand -15.9498 -10.002
rfingers 7.12502
rthumb 10.2485 -39.7324
lclavicle -4.02539e-014 -2.78299e-014
lhumerus -32.389 3.43189 89.4687
lradius 31.4878
lwrist -9.63814
lhand -6.27022 1.14113
lfingers 7.12502
lthumb 19.5726 30.1759
rfemur -12.1077 -2.80716 26.2034
rtibia 29.3464
rfoot -19.8632 -22.0319
rtoes -13.7656
lfemur -31.6936 -1.59602 -11.4078
ltibia 43.8639
lfoot -15.6173 -2.92575
ltoes 6.98935
